# xmcd CD database file
#
# Track frame offsets:
#	150
#	31802
#	60640
#	88035
#	117562
#	151300
#	177000
#
# Disc length: 2847 seconds
#
# Revision: 0
# Processed by: cddbd v1.5.2PL0 Copyright (c) Steve Scherf et al.
# Submitted via: CDex 1.51
#
DISCID=500b1d07
DTITLE=Dukespan Nyc - Twelve Colors
DYEAR=1900
DGENRE=Jazz
TTITLE0=Strivin'
TTITLE1=Contended
TTITLE2=Suave
TTITLE3=Twelve Colors
TTITLE4=Friends
TTITLE5=Rhythm Changes
TTITLE6=The Point Of No Return
EXTD=
EXTT0=
EXTT1=
EXTT2=
EXTT3=
EXTT4=
EXTT5=
EXTT6=
PLAYORDER=
